<svg xmlns="http://www.w3.org/2000/svg" xmlns:xlink="http://www.w3.org/1999/xlink" viewBox="0 0 38.23 25.5"><defs><style>.cls-1{fill:url(#linear-gradient);}.cls-2{fill:url(#linear-gradient-2);}.cls-3{fill:url(#linear-gradient-3);}.cls-4{fill:url(#linear-gradient-4);}.cls-5{fill:url(#linear-gradient-5);}.cls-6{fill:url(#linear-gradient-6);}.cls-7{fill:url(#linear-gradient-7);}.cls-8{fill:url(#linear-gradient-8);}.cls-9{fill:url(#linear-gradient-9);}.cls-10{fill:url(#linear-gradient-10);}.cls-11{fill:url(#linear-gradient-11);}</style><linearGradient id="linear-gradient" x1="34.83" y1="27.86" x2="-7.17" y2="-3.89" gradientUnits="userSpaceOnUse"><stop offset="0" stop-color="#e4b15d"/><stop offset="0.27" stop-color="#f0b744"/><stop offset="0.54" stop-color="#ffffe8"/><stop offset="0.75" stop-color="#efbf61"/><stop offset="0.9" stop-color="#eed19a"/><stop offset="1" stop-color="#d09655"/></linearGradient><linearGradient id="linear-gradient-2" x1="36.46" y1="25.7" x2="-5.54" y2="-6.05" xlink:href="#linear-gradient"/><linearGradient id="linear-gradient-3" x1="41.43" y1="19.13" x2="-0.57" y2="-12.62" xlink:href="#linear-gradient"/><linearGradient id="linear-gradient-4" x1="31.47" y1="32.3" x2="-10.53" y2="0.55" xlink:href="#linear-gradient"/><linearGradient id="linear-gradient-5" x1="45.82" y1="13.31" x2="3.82" y2="-18.44" xlink:href="#linear-gradient"/><linearGradient id="linear-gradient-6" x1="36.38" y1="25.8" x2="-5.62" y2="-5.94" xlink:href="#linear-gradient"/><linearGradient id="linear-gradient-7" x1="41.29" y1="19.31" x2="-0.71" y2="-12.44" xlink:href="#linear-gradient"/><linearGradient id="linear-gradient-8" x1="43.79" y1="16.01" x2="1.79" y2="-15.74" xlink:href="#linear-gradient"/><linearGradient id="linear-gradient-9" x1="28.98" y1="35.6" x2="-13.02" y2="3.85" xlink:href="#linear-gradient"/><linearGradient id="linear-gradient-10" x1="37.94" y1="23.75" x2="-4.07" y2="-8" xlink:href="#linear-gradient"/><linearGradient id="linear-gradient-11" x1="31.91" y1="31.72" x2="-10.09" y2="-0.03" xlink:href="#linear-gradient"/></defs><g id="Capa_2" data-name="Capa 2"><g id="Cards"><path class="cls-1" d="M15.7,5.26H0v4.4H11.48A8.33,8.33,0,0,1,15.7,5.26Z"/><path class="cls-2" d="M10.88,4.51V0H4.77A4.75,4.75,0,0,0,0,4.51Z"/><rect class="cls-3" x="11.63" width="14.97" height="4.51"/><path class="cls-4" d="M10.88,12.75a8.22,8.22,0,0,1,.34-2.34H0v4.68H11.22A8.22,8.22,0,0,1,10.88,12.75Z"/><path class="cls-5" d="M38.2,4.51A4.75,4.75,0,0,0,33.46,0H27.35V4.51Z"/><path class="cls-6" d="M11.63,12.75a7.49,7.49,0,1,0,7.48-7.49A7.5,7.5,0,0,0,11.63,12.75Z"/><path class="cls-7" d="M27.35,12.75A8.22,8.22,0,0,1,27,15.09H38.23V10.41H27A8.22,8.22,0,0,1,27.35,12.75Z"/><path class="cls-8" d="M26.74,9.66H38.23V5.26H22.53A8.27,8.27,0,0,1,26.74,9.66Z"/><path class="cls-9" d="M11.48,15.84H0v4.4H15.7A8.33,8.33,0,0,1,11.48,15.84Z"/><path class="cls-10" d="M22.53,20.24h15.7v-4.4H26.75A8.33,8.33,0,0,1,22.53,20.24Z"/><path class="cls-11" d="M27.35,21v4.42H26.6V21h-15v4.42h-.75V21H0A4.75,4.75,0,0,0,4.77,25.5H33.46A4.75,4.75,0,0,0,38.2,21Z"/></g></g></svg>